<svg width="91" height="15" viewBox="0 0 91 15" fill="none" xmlns="http://www.w3.org/2000/svg">
<path d="M14.9603 5.42779C14.8466 5.07768 14.5084 4.83714 14.0321 4.76781L10.1499 4.20283L8.41358 0.680149C8.20061 0.247994 7.86758 0 7.5 0C7.13241 0 6.79939 0.247994 6.58642 0.680264L4.85035 4.20283L0.968056 4.76781C0.491638 4.83714 0.153237 5.07768 0.0397112 5.42779C-0.0738142 5.77789 0.0587084 6.17165 0.403404 6.508L3.2127 9.25003L2.5494 13.122C2.4646 13.6172 2.60914 13.9139 2.74532 14.0757C2.90508 14.2655 3.13808 14.37 3.40141 14.37C3.59951 14.37 3.8102 14.3119 4.02775 14.1974L7.5 12.3694L10.9725 14.1975C11.1899 14.312 11.4006 14.37 11.5987 14.37H11.5988C11.862 14.37 12.0951 14.2655 12.2549 14.0757C12.391 13.914 12.5356 13.6172 12.4507 13.122L11.7875 9.25003L14.5967 6.508C14.9413 6.17165 15.0738 5.77789 14.9603 5.42779V5.42779Z" fill="#F3684A"/>
<path d="M52.9603 5.42779C52.8466 5.07768 52.5084 4.83714 52.0321 4.76781L48.1499 4.20283L46.4136 0.680149C46.2006 0.247994 45.8676 0 45.5 0C45.1324 0 44.7994 0.247994 44.5864 0.680264L42.8503 4.20283L38.9681 4.76781C38.4916 4.83714 38.1532 5.07768 38.0397 5.42779C37.9262 5.77789 38.0587 6.17165 38.4034 6.508L41.2127 9.25003L40.5494 13.122C40.4646 13.6172 40.6091 13.9139 40.7453 14.0757C40.9051 14.2655 41.1381 14.37 41.4014 14.37C41.5995 14.37 41.8102 14.3119 42.0277 14.1974L45.5 12.3694L48.9725 14.1975C49.1899 14.312 49.4006 14.37 49.5987 14.37H49.5988C49.862 14.37 50.0951 14.2655 50.2549 14.0757C50.391 13.914 50.5356 13.6172 50.4507 13.122L49.7875 9.25003L52.5967 6.508C52.9413 6.17165 53.0738 5.77789 52.9603 5.42779V5.42779Z" fill="#F3684A"/>
<path d="M71.9603 5.42779C71.8466 5.07768 71.5084 4.83714 71.0321 4.76781L67.1499 4.20283L65.4136 0.680149C65.2006 0.247994 64.8676 0 64.5 0C64.1324 0 63.7994 0.247994 63.5864 0.680264L61.8503 4.20283L57.9681 4.76781C57.4916 4.83714 57.1532 5.07768 57.0397 5.42779C56.9262 5.77789 57.0587 6.17165 57.4034 6.508L60.2127 9.25003L59.5494 13.122C59.4646 13.6172 59.6091 13.9139 59.7453 14.0757C59.9051 14.2655 60.1381 14.37 60.4014 14.37C60.5995 14.37 60.8102 14.3119 61.0277 14.1974L64.5 12.3694L67.9725 14.1975C68.1899 14.312 68.4006 14.37 68.5987 14.37H68.5988C68.862 14.37 69.0951 14.2655 69.2549 14.0757C69.391 13.914 69.5356 13.6172 69.4507 13.122L68.7875 9.25003L71.5967 6.508C71.9413 6.17165 72.0738 5.77789 71.9603 5.42779V5.42779Z" fill="#F3684A"/>
<path d="M90.9603 5.42779C90.8466 5.07768 90.5084 4.83714 90.0321 4.76781L86.1499 4.20283L84.4136 0.680149C84.2006 0.247994 83.8676 0 83.5 0C83.1324 0 82.7994 0.247994 82.5864 0.680264L80.8503 4.20283L76.9681 4.76781C76.4916 4.83714 76.1532 5.07768 76.0397 5.42779C75.9262 5.77789 76.0587 6.17165 76.4034 6.508L79.2127 9.25003L78.5494 13.122C78.4646 13.6172 78.6091 13.9139 78.7453 14.0757C78.9051 14.2655 79.1381 14.37 79.4014 14.37C79.5995 14.37 79.8102 14.3119 80.0277 14.1974L83.5 12.3694L86.9725 14.1975C87.1899 14.312 87.4006 14.37 87.5987 14.37H87.5988C87.862 14.37 88.0951 14.2655 88.2549 14.0757C88.391 13.914 88.5356 13.6172 88.4507 13.122L87.7875 9.25003L90.5967 6.508C90.9413 6.17165 91.0738 5.77789 90.9603 5.42779V5.42779Z" fill="#F3684A"/>
<path d="M33.9603 5.42779C33.8466 5.07768 33.5084 4.83714 33.0321 4.76781L29.1499 4.20283L27.4136 0.680149C27.2006 0.247994 26.8676 0 26.5 0C26.1324 0 25.7994 0.247994 25.5864 0.680264L23.8503 4.20283L19.9681 4.76781C19.4916 4.83714 19.1532 5.07768 19.0397 5.42779C18.9262 5.77789 19.0587 6.17165 19.4034 6.508L22.2127 9.25003L21.5494 13.122C21.4646 13.6172 21.6091 13.9139 21.7453 14.0757C21.9051 14.2655 22.1381 14.37 22.4014 14.37C22.5995 14.37 22.8102 14.3119 23.0277 14.1974L26.5 12.3694L29.9725 14.1975C30.1899 14.312 30.4006 14.37 30.5987 14.37H30.5988C30.862 14.37 31.0951 14.2655 31.2549 14.0757C31.391 13.914 31.5356 13.6172 31.4507 13.122L30.7875 9.25003L33.5967 6.508C33.9413 6.17165 34.0738 5.77789 33.9603 5.42779V5.42779Z" fill="#F3684A"/>
</svg>
