<svg width="161" height="42" viewBox="0 0 161 42" fill="none" xmlns="http://www.w3.org/2000/svg">
<path d="M6.71484 13.9805L6.87305 16.1074C8.2207 14.4551 10.043 13.6289 12.3398 13.6289C14.7891 13.6289 16.4707 14.5957 17.3848 16.5293C18.7207 14.5957 20.625 13.6289 23.0977 13.6289C25.1602 13.6289 26.6953 14.2324 27.7031 15.4395C28.7109 16.6348 29.2148 18.4395 29.2148 20.8535V33H24.1172V20.8711C24.1172 19.793 23.9062 19.0078 23.4844 18.5156C23.0625 18.0117 22.3184 17.7598 21.252 17.7598C19.7285 17.7598 18.6738 18.4863 18.0879 19.9395L18.1055 33H13.0254V20.8887C13.0254 19.7871 12.8086 18.9902 12.375 18.498C11.9414 18.0059 11.2031 17.7598 10.1602 17.7598C8.71875 17.7598 7.67578 18.3574 7.03125 19.5527V33H1.95117V13.9805H6.71484ZM44.1562 33C43.9219 32.543 43.752 31.9746 43.6465 31.2949C42.416 32.666 40.8164 33.3516 38.8477 33.3516C36.9844 33.3516 35.4375 32.8125 34.207 31.7344C32.9883 30.6562 32.3789 29.2969 32.3789 27.6562C32.3789 25.6406 33.123 24.0938 34.6113 23.0156C36.1113 21.9375 38.2734 21.3926 41.0977 21.3809H43.4355V20.291C43.4355 19.4121 43.207 18.709 42.75 18.1816C42.3047 17.6543 41.5957 17.3906 40.623 17.3906C39.7676 17.3906 39.0938 17.5957 38.6016 18.0059C38.1211 18.416 37.8809 18.9785 37.8809 19.6934H32.8008C32.8008 18.5918 33.1406 17.5723 33.8203 16.6348C34.5 15.6973 35.4609 14.9648 36.7031 14.4375C37.9453 13.8984 39.3398 13.6289 40.8867 13.6289C43.2305 13.6289 45.0879 14.2207 46.459 15.4043C47.8418 16.5762 48.5332 18.2285 48.5332 20.3613V28.6055C48.5449 30.4102 48.7969 31.7754 49.2891 32.7012V33H44.1562ZM39.9551 29.4668C40.7051 29.4668 41.3965 29.3027 42.0293 28.9746C42.6621 28.6348 43.1309 28.1836 43.4355 27.6211V24.3516H41.5371C38.9941 24.3516 37.6406 25.2305 37.4766 26.9883L37.459 27.2871C37.459 27.9199 37.6816 28.4414 38.127 28.8516C38.5723 29.2617 39.1816 29.4668 39.9551 29.4668ZM60.3457 29.2559C61.2832 29.2559 62.0449 28.998 62.6309 28.4824C63.2168 27.9668 63.5215 27.2812 63.5449 26.4258H68.3086C68.2969 27.7148 67.9453 28.8984 67.2539 29.9766C66.5625 31.043 65.6133 31.875 64.4062 32.4727C63.2109 33.0586 61.8867 33.3516 60.4336 33.3516C57.7148 33.3516 55.5703 32.4902 54 30.7676C52.4297 29.0332 51.6445 26.6426 51.6445 23.5957V23.2617C51.6445 20.332 52.4238 17.9941 53.9824 16.248C55.541 14.502 57.6797 13.6289 60.3984 13.6289C62.7773 13.6289 64.6816 14.3086 66.1113 15.668C67.5527 17.0156 68.2852 18.8145 68.3086 21.0645H63.5449C63.5215 20.0801 63.2168 19.2832 62.6309 18.6738C62.0449 18.0527 61.2715 17.7422 60.3105 17.7422C59.127 17.7422 58.2305 18.1758 57.6211 19.043C57.0234 19.8984 56.7246 21.293 56.7246 23.2266V23.7539C56.7246 25.7109 57.0234 27.1172 57.6211 27.9727C58.2188 28.8281 59.127 29.2559 60.3457 29.2559ZM76.166 16.0547C77.5137 14.4375 79.207 13.6289 81.2461 13.6289C85.3711 13.6289 87.4629 16.0254 87.5215 20.8184V33H82.4414V20.959C82.4414 19.8691 82.207 19.0664 81.7383 18.5508C81.2695 18.0234 80.4902 17.7598 79.4004 17.7598C77.9121 17.7598 76.834 18.334 76.166 19.4824V33H71.0859V6H76.166V16.0547ZM102.375 33C102.141 32.543 101.971 31.9746 101.865 31.2949C100.635 32.666 99.0352 33.3516 97.0664 33.3516C95.2031 33.3516 93.6562 32.8125 92.4258 31.7344C91.207 30.6562 90.5977 29.2969 90.5977 27.6562C90.5977 25.6406 91.3418 24.0938 92.8301 23.0156C94.3301 21.9375 96.4922 21.3926 99.3164 21.3809H101.654V20.291C101.654 19.4121 101.426 18.709 100.969 18.1816C100.523 17.6543 99.8145 17.3906 98.8418 17.3906C97.9863 17.3906 97.3125 17.5957 96.8203 18.0059C96.3398 18.416 96.0996 18.9785 96.0996 19.6934H91.0195C91.0195 18.5918 91.3594 17.5723 92.0391 16.6348C92.7188 15.6973 93.6797 14.9648 94.9219 14.4375C96.1641 13.8984 97.5586 13.6289 99.1055 13.6289C101.449 13.6289 103.307 14.2207 104.678 15.4043C106.061 16.5762 106.752 18.2285 106.752 20.3613V28.6055C106.764 30.4102 107.016 31.7754 107.508 32.7012V33H102.375ZM98.1738 29.4668C98.9238 29.4668 99.6152 29.3027 100.248 28.9746C100.881 28.6348 101.35 28.1836 101.654 27.6211V24.3516H99.7559C97.2129 24.3516 95.8594 25.2305 95.6953 26.9883L95.6777 27.2871C95.6777 27.9199 95.9004 28.4414 96.3457 28.8516C96.791 29.2617 97.4004 29.4668 98.1738 29.4668ZM116.016 33H110.918V6H116.016V33ZM131.238 33C131.004 32.543 130.834 31.9746 130.729 31.2949C129.498 32.666 127.898 33.3516 125.93 33.3516C124.066 33.3516 122.52 32.8125 121.289 31.7344C120.07 30.6562 119.461 29.2969 119.461 27.6562C119.461 25.6406 120.205 24.0938 121.693 23.0156C123.193 21.9375 125.355 21.3926 128.18 21.3809H130.518V20.291C130.518 19.4121 130.289 18.709 129.832 18.1816C129.387 17.6543 128.678 17.3906 127.705 17.3906C126.85 17.3906 126.176 17.5957 125.684 18.0059C125.203 18.416 124.963 18.9785 124.963 19.6934H119.883C119.883 18.5918 120.223 17.5723 120.902 16.6348C121.582 15.6973 122.543 14.9648 123.785 14.4375C125.027 13.8984 126.422 13.6289 127.969 13.6289C130.312 13.6289 132.17 14.2207 133.541 15.4043C134.924 16.5762 135.615 18.2285 135.615 20.3613V28.6055C135.627 30.4102 135.879 31.7754 136.371 32.7012V33H131.238ZM127.037 29.4668C127.787 29.4668 128.479 29.3027 129.111 28.9746C129.744 28.6348 130.213 28.1836 130.518 27.6211V24.3516H128.619C126.076 24.3516 124.723 25.2305 124.559 26.9883L124.541 27.2871C124.541 27.9199 124.764 28.4414 125.209 28.8516C125.654 29.2617 126.264 29.4668 127.037 29.4668Z" fill="black"/>
<circle cx="151.5" cy="23.5" r="9.5" fill="#F3684A"/>
</svg>
