<svg width="211" height="55" viewBox="0 0 211 55" fill="none" xmlns="http://www.w3.org/2000/svg">
<path d="M8.95312 18.6406L9.16406 21.4766C10.9609 19.2734 13.3906 18.1719 16.4531 18.1719C19.7188 18.1719 21.9609 19.4609 23.1797 22.0391C24.9609 19.4609 27.5 18.1719 30.7969 18.1719C33.5469 18.1719 35.5938 18.9766 36.9375 20.5859C38.2812 22.1797 38.9531 24.5859 38.9531 27.8047V44H32.1562V27.8281C32.1562 26.3906 31.875 25.3438 31.3125 24.6875C30.75 24.0156 29.7578 23.6797 28.3359 23.6797C26.3047 23.6797 24.8984 24.6484 24.1172 26.5859L24.1406 44H17.3672V27.8516C17.3672 26.3828 17.0781 25.3203 16.5 24.6641C15.9219 24.0078 14.9375 23.6797 13.5469 23.6797C11.625 23.6797 10.2344 24.4766 9.375 26.0703V44H2.60156V18.6406H8.95312ZM58.875 44C58.5625 43.3906 58.3359 42.6328 58.1953 41.7266C56.5547 43.5547 54.4219 44.4688 51.7969 44.4688C49.3125 44.4688 47.25 43.75 45.6094 42.3125C43.9844 40.875 43.1719 39.0625 43.1719 36.875C43.1719 34.1875 44.1641 32.125 46.1484 30.6875C48.1484 29.25 51.0312 28.5234 54.7969 28.5078H57.9141V27.0547C57.9141 25.8828 57.6094 24.9453 57 24.2422C56.4062 23.5391 55.4609 23.1875 54.1641 23.1875C53.0234 23.1875 52.125 23.4609 51.4688 24.0078C50.8281 24.5547 50.5078 25.3047 50.5078 26.2578H43.7344C43.7344 24.7891 44.1875 23.4297 45.0938 22.1797C46 20.9297 47.2812 19.9531 48.9375 19.25C50.5938 18.5312 52.4531 18.1719 54.5156 18.1719C57.6406 18.1719 60.1172 18.9609 61.9453 20.5391C63.7891 22.1016 64.7109 24.3047 64.7109 27.1484V38.1406C64.7266 40.5469 65.0625 42.3672 65.7188 43.6016V44H58.875ZM53.2734 39.2891C54.2734 39.2891 55.1953 39.0703 56.0391 38.6328C56.8828 38.1797 57.5078 37.5781 57.9141 36.8281V32.4688H55.3828C51.9922 32.4688 50.1875 33.6406 49.9688 35.9844L49.9453 36.3828C49.9453 37.2266 50.2422 37.9219 50.8359 38.4688C51.4297 39.0156 52.2422 39.2891 53.2734 39.2891ZM80.4609 39.0078C81.7109 39.0078 82.7266 38.6641 83.5078 37.9766C84.2891 37.2891 84.6953 36.375 84.7266 35.2344H91.0781C91.0625 36.9531 90.5938 38.5312 89.6719 39.9688C88.75 41.3906 87.4844 42.5 85.875 43.2969C84.2812 44.0781 82.5156 44.4688 80.5781 44.4688C76.9531 44.4688 74.0938 43.3203 72 41.0234C69.9062 38.7109 68.8594 35.5234 68.8594 31.4609V31.0156C68.8594 27.1094 69.8984 23.9922 71.9766 21.6641C74.0547 19.3359 76.9062 18.1719 80.5312 18.1719C83.7031 18.1719 86.2422 19.0781 88.1484 20.8906C90.0703 22.6875 91.0469 25.0859 91.0781 28.0859H84.7266C84.6953 26.7734 84.2891 25.7109 83.5078 24.8984C82.7266 24.0703 81.6953 23.6562 80.4141 23.6562C78.8359 23.6562 77.6406 24.2344 76.8281 25.3906C76.0312 26.5312 75.6328 28.3906 75.6328 30.9688V31.6719C75.6328 34.2812 76.0312 36.1562 76.8281 37.2969C77.625 38.4375 78.8359 39.0078 80.4609 39.0078ZM101.555 21.4062C103.352 19.25 105.609 18.1719 108.328 18.1719C113.828 18.1719 116.617 21.3672 116.695 27.7578V44H109.922V27.9453C109.922 26.4922 109.609 25.4219 108.984 24.7344C108.359 24.0312 107.32 23.6797 105.867 23.6797C103.883 23.6797 102.445 24.4453 101.555 25.9766V44H94.7812V8H101.555V21.4062ZM136.5 44C136.188 43.3906 135.961 42.6328 135.82 41.7266C134.18 43.5547 132.047 44.4688 129.422 44.4688C126.938 44.4688 124.875 43.75 123.234 42.3125C121.609 40.875 120.797 39.0625 120.797 36.875C120.797 34.1875 121.789 32.125 123.773 30.6875C125.773 29.25 128.656 28.5234 132.422 28.5078H135.539V27.0547C135.539 25.8828 135.234 24.9453 134.625 24.2422C134.031 23.5391 133.086 23.1875 131.789 23.1875C130.648 23.1875 129.75 23.4609 129.094 24.0078C128.453 24.5547 128.133 25.3047 128.133 26.2578H121.359C121.359 24.7891 121.812 23.4297 122.719 22.1797C123.625 20.9297 124.906 19.9531 126.562 19.25C128.219 18.5312 130.078 18.1719 132.141 18.1719C135.266 18.1719 137.742 18.9609 139.57 20.5391C141.414 22.1016 142.336 24.3047 142.336 27.1484V38.1406C142.352 40.5469 142.688 42.3672 143.344 43.6016V44H136.5ZM130.898 39.2891C131.898 39.2891 132.82 39.0703 133.664 38.6328C134.508 38.1797 135.133 37.5781 135.539 36.8281V32.4688H133.008C129.617 32.4688 127.812 33.6406 127.594 35.9844L127.57 36.3828C127.57 37.2266 127.867 37.9219 128.461 38.4688C129.055 39.0156 129.867 39.2891 130.898 39.2891ZM154.688 44H147.891V8H154.688V44ZM174.984 44C174.672 43.3906 174.445 42.6328 174.305 41.7266C172.664 43.5547 170.531 44.4688 167.906 44.4688C165.422 44.4688 163.359 43.75 161.719 42.3125C160.094 40.875 159.281 39.0625 159.281 36.875C159.281 34.1875 160.273 32.125 162.258 30.6875C164.258 29.25 167.141 28.5234 170.906 28.5078H174.023V27.0547C174.023 25.8828 173.719 24.9453 173.109 24.2422C172.516 23.5391 171.57 23.1875 170.273 23.1875C169.133 23.1875 168.234 23.4609 167.578 24.0078C166.938 24.5547 166.617 25.3047 166.617 26.2578H159.844C159.844 24.7891 160.297 23.4297 161.203 22.1797C162.109 20.9297 163.391 19.9531 165.047 19.25C166.703 18.5312 168.562 18.1719 170.625 18.1719C173.75 18.1719 176.227 18.9609 178.055 20.5391C179.898 22.1016 180.82 24.3047 180.82 27.1484V38.1406C180.836 40.5469 181.172 42.3672 181.828 43.6016V44H174.984ZM169.383 39.2891C170.383 39.2891 171.305 39.0703 172.148 38.6328C172.992 38.1797 173.617 37.5781 174.023 36.8281V32.4688H171.492C168.102 32.4688 166.297 33.6406 166.078 35.9844L166.055 36.3828C166.055 37.2266 166.352 37.9219 166.945 38.4688C167.539 39.0156 168.352 39.2891 169.383 39.2891Z" fill="white"/>
<ellipse cx="199" cy="30.5" rx="12" ry="12.5" fill="#F3684A"/>
</svg>
