<svg width="93" height="70" viewBox="0 0 93 70" fill="none" xmlns="http://www.w3.org/2000/svg">
<rect x="93" y="70" width="93" height="70" transform="rotate(-180 93 70)" fill="#F3684A"/>
<path fill-rule="evenodd" clip-rule="evenodd" d="M45.5268 48.1103C44.7132 48.9239 44.7132 50.243 45.5268 51.0566C46.3404 51.8701 47.6595 51.8701 48.4731 51.0566L63.0564 36.4732C63.87 35.6596 63.87 34.3405 63.0564 33.5269L48.4731 18.9436C47.6595 18.13 46.3404 18.13 45.5268 18.9436C44.7132 19.7572 44.7132 21.0763 45.5268 21.8899L56.5537 32.9167L32.4166 32.9167C31.266 32.9167 30.3333 33.8495 30.3333 35.0001C30.3333 36.1507 31.266 37.0834 32.4166 37.0834L56.5537 37.0834L45.5268 48.1103Z" fill="white"/>
</svg>
